<mxfile host="app.diagrams.net" agent="Mozilla/5.0 (Windows NT 10.0; Win64; x64) AppleWebKit/537.36 (KHTML, like Gecko) Chrome/136.0.0.0 Safari/537.36 Edg/136.0.0.0" version="27.0.3">
  <diagram name="Page-1" id="Qmxo_evmaGs7W0fc3tI7">
    <mxGraphModel dx="1418" dy="794" grid="1" gridSize="10" guides="1" tooltips="1" connect="1" arrows="1" fold="1" page="1" pageScale="1" pageWidth="850" pageHeight="1100" math="0" shadow="0">
      <root>
        <mxCell id="0" />
        <mxCell id="1" parent="0" />
        <mxCell id="nB9sh_DCQepNfbdgbkWJ-1" value="Biểu đồ tuần tự chức năng thích bài viết diễn đàn" style="swimlane;whiteSpace=wrap;html=1;startSize=23;fontSize=14;" vertex="1" parent="1">
          <mxGeometry x="80" y="240" width="950" height="250" as="geometry" />
        </mxCell>
        <mxCell id="nB9sh_DCQepNfbdgbkWJ-2" value="" style="shape=umlLifeline;perimeter=lifelinePerimeter;whiteSpace=wrap;html=1;container=1;dropTarget=0;collapsible=0;recursiveResize=0;outlineConnect=0;portConstraint=eastwest;newEdgeStyle={&quot;curved&quot;:0,&quot;rounded&quot;:0};participant=umlActor;" vertex="1" parent="nB9sh_DCQepNfbdgbkWJ-1">
          <mxGeometry x="30" y="40" width="30" height="210" as="geometry" />
        </mxCell>
        <mxCell id="nB9sh_DCQepNfbdgbkWJ-3" value="Giao diện" style="shape=umlLifeline;perimeter=lifelinePerimeter;whiteSpace=wrap;html=1;container=1;dropTarget=0;collapsible=0;recursiveResize=0;outlineConnect=0;portConstraint=eastwest;newEdgeStyle={&quot;curved&quot;:0,&quot;rounded&quot;:0};" vertex="1" parent="nB9sh_DCQepNfbdgbkWJ-1">
          <mxGeometry x="230" y="40" width="90" height="210" as="geometry" />
        </mxCell>
        <mxCell id="nB9sh_DCQepNfbdgbkWJ-4" value="" style="html=1;points=[[0,0,0,0,5],[0,1,0,0,-5],[1,0,0,0,5],[1,1,0,0,-5]];perimeter=orthogonalPerimeter;outlineConnect=0;targetShapes=umlLifeline;portConstraint=eastwest;newEdgeStyle={&quot;curved&quot;:0,&quot;rounded&quot;:0};" vertex="1" parent="nB9sh_DCQepNfbdgbkWJ-3">
          <mxGeometry x="40" y="70" width="10" height="130" as="geometry" />
        </mxCell>
        <mxCell id="nB9sh_DCQepNfbdgbkWJ-6" value="Web Client" style="shape=umlLifeline;perimeter=lifelinePerimeter;whiteSpace=wrap;html=1;container=1;dropTarget=0;collapsible=0;recursiveResize=0;outlineConnect=0;portConstraint=eastwest;newEdgeStyle={&quot;curved&quot;:0,&quot;rounded&quot;:0};" vertex="1" parent="nB9sh_DCQepNfbdgbkWJ-1">
          <mxGeometry x="460" y="40" width="90" height="210" as="geometry" />
        </mxCell>
        <mxCell id="nB9sh_DCQepNfbdgbkWJ-7" value="&lt;span style=&quot;color: rgba(0, 0, 0, 0); font-family: monospace; font-size: 0px; text-align: start;&quot;&gt;%3CmxGraphModel%3E%3Croot%3E%3CmxCell%20id%3D%220%22%2F%3E%3CmxCell%20id%3D%221%22%20parent%3D%220%22%2F%3E%3CmxCell%20id%3D%222%22%20value%3D%22G%E1%BB%8Di%20API%20t%C3%ACm%20ki%E1%BA%BFm%20d%E1%BB%AF%20li%E1%BB%87u%22%20style%3D%22html%3D1%3BverticalAlign%3Dbottom%3BendArrow%3Dblock%3Bcurved%3D0%3Brounded%3D0%3B%22%20edge%3D%221%22%20parent%3D%221%22%3E%3CmxGeometry%20width%3D%2280%22%20relative%3D%221%22%20as%3D%22geometry%22%3E%3CmxPoint%20x%3D%22360%22%20y%3D%22730%22%20as%3D%22sourcePoint%22%2F%3E%3CmxPoint%20x%3D%22580%22%20y%3D%22730%22%20as%3D%22targetPoint%22%2F%3E%3C%2FmxGeometry%3E%3C%2FmxCell%3E%3C%2Froot%3E%3C%2FmxGraphModel%3E&lt;/span&gt;" style="html=1;points=[[0,0,0,0,5],[0,1,0,0,-5],[1,0,0,0,5],[1,1,0,0,-5]];perimeter=orthogonalPerimeter;outlineConnect=0;targetShapes=umlLifeline;portConstraint=eastwest;newEdgeStyle={&quot;curved&quot;:0,&quot;rounded&quot;:0};" vertex="1" parent="nB9sh_DCQepNfbdgbkWJ-6">
          <mxGeometry x="40" y="80" width="10" height="110" as="geometry" />
        </mxCell>
        <mxCell id="nB9sh_DCQepNfbdgbkWJ-9" value="Web API" style="shape=umlLifeline;perimeter=lifelinePerimeter;whiteSpace=wrap;html=1;container=1;dropTarget=0;collapsible=0;recursiveResize=0;outlineConnect=0;portConstraint=eastwest;newEdgeStyle={&quot;curved&quot;:0,&quot;rounded&quot;:0};" vertex="1" parent="nB9sh_DCQepNfbdgbkWJ-1">
          <mxGeometry x="650" y="40" width="90" height="210" as="geometry" />
        </mxCell>
        <mxCell id="nB9sh_DCQepNfbdgbkWJ-10" value="" style="html=1;points=[[0,0,0,0,5],[0,1,0,0,-5],[1,0,0,0,5],[1,1,0,0,-5]];perimeter=orthogonalPerimeter;outlineConnect=0;targetShapes=umlLifeline;portConstraint=eastwest;newEdgeStyle={&quot;curved&quot;:0,&quot;rounded&quot;:0};" vertex="1" parent="nB9sh_DCQepNfbdgbkWJ-9">
          <mxGeometry x="40" y="90" width="10" height="80" as="geometry" />
        </mxCell>
        <mxCell id="nB9sh_DCQepNfbdgbkWJ-12" value="Nhấn nút &#39;Like&#39;" style="html=1;verticalAlign=bottom;endArrow=block;curved=0;rounded=0;" edge="1" parent="nB9sh_DCQepNfbdgbkWJ-1">
          <mxGeometry width="80" relative="1" as="geometry">
            <mxPoint x="50" y="120" as="sourcePoint" />
            <mxPoint x="270" y="120" as="targetPoint" />
          </mxGeometry>
        </mxCell>
        <mxCell id="nB9sh_DCQepNfbdgbkWJ-13" value="Gửi yêu cầu like" style="html=1;verticalAlign=bottom;endArrow=block;curved=0;rounded=0;" edge="1" parent="nB9sh_DCQepNfbdgbkWJ-1">
          <mxGeometry width="80" relative="1" as="geometry">
            <mxPoint x="280" y="130" as="sourcePoint" />
            <mxPoint x="500" y="130" as="targetPoint" />
          </mxGeometry>
        </mxCell>
        <mxCell id="nB9sh_DCQepNfbdgbkWJ-14" value="Gọi API like" style="html=1;verticalAlign=bottom;endArrow=block;curved=0;rounded=0;" edge="1" parent="nB9sh_DCQepNfbdgbkWJ-1" target="nB9sh_DCQepNfbdgbkWJ-10">
          <mxGeometry width="80" relative="1" as="geometry">
            <mxPoint x="510" y="140" as="sourcePoint" />
            <mxPoint x="670" y="140" as="targetPoint" />
          </mxGeometry>
        </mxCell>
        <mxCell id="nB9sh_DCQepNfbdgbkWJ-15" value="MySQL" style="shape=umlLifeline;perimeter=lifelinePerimeter;whiteSpace=wrap;html=1;container=1;dropTarget=0;collapsible=0;recursiveResize=0;outlineConnect=0;portConstraint=eastwest;newEdgeStyle={&quot;curved&quot;:0,&quot;rounded&quot;:0};" vertex="1" parent="nB9sh_DCQepNfbdgbkWJ-1">
          <mxGeometry x="830" y="40" width="90" height="210" as="geometry" />
        </mxCell>
        <mxCell id="nB9sh_DCQepNfbdgbkWJ-16" value="" style="html=1;points=[[0,0,0,0,5],[0,1,0,0,-5],[1,0,0,0,5],[1,1,0,0,-5]];perimeter=orthogonalPerimeter;outlineConnect=0;targetShapes=umlLifeline;portConstraint=eastwest;newEdgeStyle={&quot;curved&quot;:0,&quot;rounded&quot;:0};" vertex="1" parent="nB9sh_DCQepNfbdgbkWJ-15">
          <mxGeometry x="40" y="100" width="10" height="50" as="geometry" />
        </mxCell>
        <mxCell id="nB9sh_DCQepNfbdgbkWJ-18" value="Cập nhật trạng thái like &lt;br&gt;vào CSDL" style="html=1;verticalAlign=bottom;endArrow=block;curved=0;rounded=0;" edge="1" parent="nB9sh_DCQepNfbdgbkWJ-1" target="nB9sh_DCQepNfbdgbkWJ-16">
          <mxGeometry width="80" relative="1" as="geometry">
            <mxPoint x="700" y="150" as="sourcePoint" />
            <mxPoint x="780" y="150" as="targetPoint" />
            <mxPoint as="offset" />
          </mxGeometry>
        </mxCell>
        <mxCell id="nB9sh_DCQepNfbdgbkWJ-19" value="Xác nhận đã cập nhật" style="html=1;verticalAlign=bottom;endArrow=open;dashed=1;endSize=8;curved=0;rounded=0;" edge="1" parent="nB9sh_DCQepNfbdgbkWJ-1" target="nB9sh_DCQepNfbdgbkWJ-10">
          <mxGeometry relative="1" as="geometry">
            <mxPoint x="870" y="180" as="sourcePoint" />
            <mxPoint x="790" y="180" as="targetPoint" />
          </mxGeometry>
        </mxCell>
        <mxCell id="nB9sh_DCQepNfbdgbkWJ-20" value="Trả về kết quả" style="html=1;verticalAlign=bottom;endArrow=open;dashed=1;endSize=8;curved=0;rounded=0;" edge="1" parent="nB9sh_DCQepNfbdgbkWJ-1" target="nB9sh_DCQepNfbdgbkWJ-7">
          <mxGeometry relative="1" as="geometry">
            <mxPoint x="690" y="200" as="sourcePoint" />
            <mxPoint x="610" y="200" as="targetPoint" />
            <mxPoint as="offset" />
          </mxGeometry>
        </mxCell>
        <mxCell id="nB9sh_DCQepNfbdgbkWJ-21" value="Cập nhật giao diện" style="html=1;verticalAlign=bottom;endArrow=open;dashed=1;endSize=8;curved=0;rounded=0;" edge="1" parent="nB9sh_DCQepNfbdgbkWJ-1" target="nB9sh_DCQepNfbdgbkWJ-4">
          <mxGeometry relative="1" as="geometry">
            <mxPoint x="500" y="210" as="sourcePoint" />
            <mxPoint x="420" y="210" as="targetPoint" />
            <mxPoint as="offset" />
          </mxGeometry>
        </mxCell>
        <mxCell id="nB9sh_DCQepNfbdgbkWJ-22" value="Hiển thị số lượng like mới" style="html=1;verticalAlign=bottom;endArrow=open;dashed=1;endSize=8;curved=0;rounded=0;" edge="1" parent="nB9sh_DCQepNfbdgbkWJ-1" target="nB9sh_DCQepNfbdgbkWJ-2">
          <mxGeometry relative="1" as="geometry">
            <mxPoint x="270" y="220" as="sourcePoint" />
            <mxPoint x="190" y="220" as="targetPoint" />
          </mxGeometry>
        </mxCell>
      </root>
    </mxGraphModel>
  </diagram>
</mxfile>
